{"asset":{"version":"2.0","generator":"ChatGPT Minimal Airplane"},"extensionsUsed":["KHR_materials_unlit"],"buffers":[{"byteLength":116,"uri":"data:application/octet-stream;base64,"}],"bufferViews":[{"buffer":0,"byteOffset":0,"byteLength":84,"target":34962},{"buffer":0,"byteOffset":84,"byteLength":30,"target":34963}],"accessors":[{"bufferView":0,"componentType":5126,"count":7,"type":"VEC3","min":[-1.2,0.0,-1.5],"max":[1.2,0.0,1.5]},{"bufferView":1,"componentType":5123,"count":15,"type":"SCALAR"}],"materials":[{"name":"UnlitWhite","extensions":{"KHR_materials_unlit":{}},"pbrMetallicRoughness":{"baseColorFactor":[0.95,0.95,0.98,1.0],"metallicFactor":0.0,"roughnessFactor":0.9},"doubleSided":true}],"meshes":[{"name":"PaperPlane","primitives":[{"attributes":{"POSITION":0},"indices":1,"material":0,"mode":4}]}],"nodes":[{"mesh":0,"name":"PlaneNode"}],"scenes":[{"nodes":[0]}],"scene":0}