{"asset":{"version":"2.0","generator":"ChatGPT Detailed Jet Builder"},"buffers":[{"byteLength":116352,"uri":"data:application/octet-stream;base64,"}],"bufferViews":[{"buffer":0,"byteOffset":0,"byteLength":48384,"target":34962},{"buffer":0,"byteOffset":48384,"byteLength":48384,"target":34962},{"buffer":0,"byteOffset":96768,"byteLength":432,"target":34962},{"buffer":0,"byteOffset":97200,"byteLength":432,"target":34962},{"buffer":0,"byteOffset":97632,"byteLength":432,"target":34962},{"buffer":0,"byteOffset":98064,"byteLength":432,"target":34962},{"buffer":0,"byteOffset":98496,"byteLength":864,"target":34962},{"buffer":0,"byteOffset":99360,"byteLength":864,"target":34962},{"buffer":0,"byteOffset":100224,"byteLength":288,"target":34962},{"buffer":0,"byteOffset":100512,"byteLength":288,"target":34962},{"buffer":0,"byteOffset":100800,"byteLength":7776,"target":34962},{"buffer":0,"byteOffset":108576,"byteLength":7776,"target":34962}],"accessors":[{"bufferView":0,"componentType":5126,"count":4032,"type":"VEC3","min":[-0.45,-0.45,-3.6],"max":[0.45,0.45,1.8]},{"bufferView":1,"componentType":5126,"count":4032,"type":"VEC3"},{"bufferView":2,"componentType":5126,"count":36,"type":"VEC3","min":[-1.7,-2.9,-0.035],"max":[0.45,0.0,0.32499999999999996]},{"bufferView":3,"componentType":5126,"count":36,"type":"VEC3"},{"bufferView":4,"componentType":5126,"count":36,"type":"VEC3","min":[-1.7,0.0,-0.035],"max":[0.45,2.9,0.32499999999999996]},{"bufferView":5,"componentType":5126,"count":36,"type":"VEC3"},{"bufferView":6,"componentType":5126,"count":72,"type":"VEC3","min":[-0.8,-0.8,-2.625],"max":[0.1,0.8,-2.527]},{"bufferView":7,"componentType":5126,"count":72,"type":"VEC3"},{"bufferView":8,"componentType":5126,"count":24,"type":"VEC3","min":[-0.9,-0.05,-2.7],"max":[0.0,0.05,-1.7000000000000002]},{"bufferView":9,"componentType":5126,"count":24,"type":"VEC3"},{"bufferView":10,"componentType":5126,"count":648,"type":"VEC3","min":[-0.42000000000000004,-0.19696155060244164,0.3],"max":[0.01999999999999999,0.1969615506024416,0.48]},{"bufferView":11,"componentType":5126,"count":648,"type":"VEC3"}],"materials":[{"name":"Fuselage","pbrMetallicRoughness":{"baseColorFactor":[0.85,0.85,0.9,1.0],"metallicFactor":0.1,"roughnessFactor":0.6},"doubleSided":true},{"name":"WingLeft","pbrMetallicRoughness":{"baseColorFactor":[0.2,0.25,0.3,1.0],"metallicFactor":0.1,"roughnessFactor":0.6},"doubleSided":true},{"name":"WingRight","pbrMetallicRoughness":{"baseColorFactor":[0.2,0.25,0.3,1.0],"metallicFactor":0.1,"roughnessFactor":0.6},"doubleSided":true},{"name":"Tailplane","pbrMetallicRoughness":{"baseColorFactor":[0.3,0.35,0.4,1.0],"metallicFactor":0.1,"roughnessFactor":0.6},"doubleSided":true},{"name":"VerticalStab","pbrMetallicRoughness":{"baseColorFactor":[0.22,0.24,0.28,1.0],"metallicFactor":0.1,"roughnessFactor":0.6},"doubleSided":true},{"name":"Canopy","pbrMetallicRoughness":{"baseColorFactor":[0.1,0.15,0.2,0.8],"metallicFactor":0.1,"roughnessFactor":0.6},"doubleSided":true}],"meshes":[{"name":"DetailedJet","primitives":[{"attributes":{"POSITION":0,"NORMAL":1},"material":0,"mode":4},{"attributes":{"POSITION":2,"NORMAL":3},"material":1,"mode":4},{"attributes":{"POSITION":4,"NORMAL":5},"material":2,"mode":4},{"attributes":{"POSITION":6,"NORMAL":7},"material":3,"mode":4},{"attributes":{"POSITION":8,"NORMAL":9},"material":4,"mode":4},{"attributes":{"POSITION":10,"NORMAL":11},"material":5,"mode":4}]}],"nodes":[{"mesh":0,"name":"JetNode"}],"scenes":[{"nodes":[0]}],"scene":0}