{"asset":{"version":"2.0","generator":"ChatGPT Decals+Anim+HUD"},"extensionsUsed":["KHR_materials_unlit"],"buffers":[{"byteLength":6636,"uri":"data:application/octet-stream;base64,"}],"bufferViews":[{"buffer":0,"byteOffset":0,"byteLength":72,"target":34962},{"buffer":0,"byteOffset":72,"byteLength":72,"target":34962},{"buffer":0,"byteOffset":144,"byteLength":48,"target":34962},{"buffer":0,"byteOffset":192,"byteLength":72,"target":34962},{"buffer":0,"byteOffset":264,"byteLength":72,"target":34962},{"buffer":0,"byteOffset":336,"byteLength":48,"target":34962},{"buffer":0,"byteOffset":384,"byteLength":72,"target":34962},{"buffer":0,"byteOffset":456,"byteLength":72,"target":34962},{"buffer":0,"byteOffset":528,"byteLength":48,"target":34962},{"buffer":0,"byteOffset":576,"byteLength":72,"target":34962},{"buffer":0,"byteOffset":648,"byteLength":72,"target":34962},{"buffer":0,"byteOffset":720,"byteLength":48,"target":34962},{"buffer":0,"byteOffset":768,"byteLength":432,"target":34962},{"buffer":0,"byteOffset":1200,"byteLength":432,"target":34962},{"buffer":0,"byteOffset":1632,"byteLength":288,"target":34962},{"buffer":0,"byteOffset":1920,"byteLength":432,"target":34962},{"buffer":0,"byteOffset":2352,"byteLength":432,"target":34962},{"buffer":0,"byteOffset":2784,"byteLength":288,"target":34962},{"buffer":0,"byteOffset":3072,"byteLength":432,"target":34962},{"buffer":0,"byteOffset":3504,"byteLength":432,"target":34962},{"buffer":0,"byteOffset":3936,"byteLength":288,"target":34962},{"buffer":0,"byteOffset":4224,"byteLength":432,"target":34962},{"buffer":0,"byteOffset":4656,"byteLength":432,"target":34962},{"buffer":0,"byteOffset":5088,"byteLength":288,"target":34962},{"buffer":0,"byteOffset":5376,"byteLength":432,"target":34962},{"buffer":0,"byteOffset":5808,"byteLength":432,"target":34962},{"buffer":0,"byteOffset":6240,"byteLength":288,"target":34962},{"buffer":0,"byteOffset":6528,"byteLength":12,"target":34962},{"buffer":0,"byteOffset":6540,"byteLength":48,"target":34962},{"buffer":0,"byteOffset":6588,"byteLength":48,"target":34962}],"accessors":[{"bufferView":0,"componentType":5126,"count":6,"type":"VEC3","min":[0.15000000000000002,0.85,0.12],"max":[0.85,1.5499999999999998,0.12]},{"bufferView":1,"componentType":5126,"count":6,"type":"VEC3"},{"bufferView":2,"componentType":5126,"count":6,"type":"VEC2"},{"bufferView":3,"componentType":5126,"count":6,"type":"VEC3","min":[0.15000000000000002,-1.5499999999999998,0.12],"max":[0.85,-0.85,0.12]},{"bufferView":4,"componentType":5126,"count":6,"type":"VEC3"},{"bufferView":5,"componentType":5126,"count":6,"type":"VEC2"},{"bufferView":6,"componentType":5126,"count":6,"type":"VEC3","min":[-0.3,-0.15,0.5],"max":[0.3,0.15,0.5]},{"bufferView":7,"componentType":5126,"count":6,"type":"VEC3"},{"bufferView":8,"componentType":5126,"count":6,"type":"VEC2"},{"bufferView":9,"componentType":5126,"count":6,"type":"VEC3","min":[-0.41000000000000003,-0.1,0.42],"max":[-0.09,0.1,0.42]},{"bufferView":10,"componentType":5126,"count":6,"type":"VEC3"},{"bufferView":11,"componentType":5126,"count":6,"type":"VEC2"},{"bufferView":12,"componentType":5126,"count":36,"type":"VEC3","min":[-0.19999999999999998,0.8999999999999999,0.020000000000000004],"max":[0.4,1.5,0.08]},{"bufferView":13,"componentType":5126,"count":36,"type":"VEC3"},{"bufferView":14,"componentType":5126,"count":36,"type":"VEC2"},{"bufferView":15,"componentType":5126,"count":36,"type":"VEC3","min":[-0.19999999999999998,-1.5,0.020000000000000004],"max":[0.4,-0.8999999999999999,0.08]},{"bufferView":16,"componentType":5126,"count":36,"type":"VEC3"},{"bufferView":17,"componentType":5126,"count":36,"type":"VEC2"},{"bufferView":18,"componentType":5126,"count":36,"type":"VEC3","min":[0.73,-0.03,-0.99],"max":[0.8700000000000001,0.03,-0.8500000000000001]},{"bufferView":19,"componentType":5126,"count":36,"type":"VEC3"},{"bufferView":20,"componentType":5126,"count":36,"type":"VEC2"},{"bufferView":21,"componentType":5126,"count":36,"type":"VEC3","min":[-0.7,0.86,-1.12],"max":[-0.5,0.9400000000000001,-0.92]},{"bufferView":22,"componentType":5126,"count":36,"type":"VEC3"},{"bufferView":23,"componentType":5126,"count":36,"type":"VEC2"},{"bufferView":24,"componentType":5126,"count":36,"type":"VEC3","min":[-0.7,-0.9400000000000001,-1.12],"max":[-0.5,-0.86,-0.92]},{"bufferView":25,"componentType":5126,"count":36,"type":"VEC3"},{"bufferView":26,"componentType":5126,"count":36,"type":"VEC2"},{"bufferView":27,"componentType":5126,"count":3,"type":"SCALAR","min":[0.0],"max":[2.0]},{"bufferView":28,"componentType":5126,"count":3,"type":"VEC4"},{"bufferView":29,"componentType":5126,"count":3,"type":"VEC4"}],"images":[{"uri":"data:image/png;base64,"},{"uri":"data:image/png;base64,"},{"uri":"data:image/png;base64,"}],"samplers":[{"input":27,"output":28,"interpolation":"LINEAR"},{"input":27,"output":29,"interpolation":"LINEAR"}],"textures":[{"sampler":0,"source":0},{"sampler":0,"source":1},{"sampler":0,"source":2}],"materials":[{"name":"DecalRoundel","extensions":{"KHR_materials_unlit":{}},"pbrMetallicRoughness":{"baseColorTexture":{"index":0}},"alphaMode":"BLEND","doubleSided":true},{"name":"DecalNumbers","extensions":{"KHR_materials_unlit":{}},"pbrMetallicRoughness":{"baseColorTexture":{"index":1}},"alphaMode":"BLEND","doubleSided":true},{"name":"HUDGlass","extensions":{"KHR_materials_unlit":{}},"pbrMetallicRoughness":{"baseColorTexture":{"index":2}},"alphaMode":"BLEND","doubleSided":true}],"meshes":[{"name":"Plane","primitives":[{"attributes":{"POSITION":0,"NORMAL":1,"TEXCOORD_0":2},"material":0,"mode":4}]},{"name":"Plane","primitives":[{"attributes":{"POSITION":3,"NORMAL":4,"TEXCOORD_0":5},"material":0,"mode":4}]},{"name":"Plane","primitives":[{"attributes":{"POSITION":6,"NORMAL":7,"TEXCOORD_0":8},"material":1,"mode":4}]},{"name":"Plane","primitives":[{"attributes":{"POSITION":9,"NORMAL":10,"TEXCOORD_0":11},"material":2,"mode":4}]},{"name":"BoxPart","primitives":[{"attributes":{"POSITION":12,"NORMAL":13,"TEXCOORD_0":14},"material":1,"mode":4}]},{"name":"BoxPart","primitives":[{"attributes":{"POSITION":15,"NORMAL":16,"TEXCOORD_0":17},"material":1,"mode":4}]},{"name":"BoxPart","primitives":[{"attributes":{"POSITION":18,"NORMAL":19,"TEXCOORD_0":20},"material":1,"mode":4}]},{"name":"BoxPart","primitives":[{"attributes":{"POSITION":21,"NORMAL":22,"TEXCOORD_0":23},"material":1,"mode":4}]},{"name":"BoxPart","primitives":[{"attributes":{"POSITION":24,"NORMAL":25,"TEXCOORD_0":26},"material":1,"mode":4}]}],"nodes":[{"name":"DecalRoundelL","mesh":0},{"name":"DecalRoundelR","mesh":1},{"name":"DecalNumber","mesh":2},{"name":"HUD","mesh":3},{"name":"LeftFlap","mesh":4},{"name":"RightFlap","mesh":5},{"name":"NoseWheel","mesh":6},{"name":"LeftWheel","mesh":7},{"name":"RightWheel","mesh":8},{"name":"SceneAdditions","children":[0,1,2,3,4,5,6,7,8]}],"scenes":[{"nodes":[9]}],"scene":0,"animations":[{"name":"FlapsAndGear","samplers":[{"input":27,"output":28,"interpolation":"LINEAR"},{"input":27,"output":29,"interpolation":"LINEAR"}],"channels":[{"sampler":0,"target":{"node":4,"path":"rotation"}},{"sampler":0,"target":{"node":5,"path":"rotation"}},{"sampler":1,"target":{"node":6,"path":"rotation"}},{"sampler":1,"target":{"node":7,"path":"rotation"}},{"sampler":1,"target":{"node":8,"path":"rotation"}}]}]}