{"asset":{"version":"2.0","generator":"ChatGPT Detailed Jet Builder"},"buffers":[{"byteLength":233472,"uri":"data:application/octet-stream;base64,"}],"bufferViews":[{"buffer":0,"byteOffset":0,"byteLength":59904,"target":34962},{"buffer":0,"byteOffset":59904,"byteLength":59904,"target":34962},{"buffer":0,"byteOffset":119808,"byteLength":39936,"target":34962},{"buffer":0,"byteOffset":159744,"byteLength":432,"target":34962},{"buffer":0,"byteOffset":160176,"byteLength":432,"target":34962},{"buffer":0,"byteOffset":160608,"byteLength":288,"target":34962},{"buffer":0,"byteOffset":160896,"byteLength":432,"target":34962},{"buffer":0,"byteOffset":161328,"byteLength":432,"target":34962},{"buffer":0,"byteOffset":161760,"byteLength":288,"target":34962},{"buffer":0,"byteOffset":162048,"byteLength":432,"target":34962},{"buffer":0,"byteOffset":162480,"byteLength":432,"target":34962},{"buffer":0,"byteOffset":162912,"byteLength":288,"target":34962},{"buffer":0,"byteOffset":163200,"byteLength":432,"target":34962},{"buffer":0,"byteOffset":163632,"byteLength":432,"target":34962},{"buffer":0,"byteOffset":164064,"byteLength":288,"target":34962},{"buffer":0,"byteOffset":164352,"byteLength":432,"target":34962},{"buffer":0,"byteOffset":164784,"byteLength":432,"target":34962},{"buffer":0,"byteOffset":165216,"byteLength":288,"target":34962},{"buffer":0,"byteOffset":165504,"byteLength":432,"target":34962},{"buffer":0,"byteOffset":165936,"byteLength":432,"target":34962},{"buffer":0,"byteOffset":166368,"byteLength":288,"target":34962},{"buffer":0,"byteOffset":166656,"byteLength":432,"target":34962},{"buffer":0,"byteOffset":167088,"byteLength":432,"target":34962},{"buffer":0,"byteOffset":167520,"byteLength":288,"target":34962},{"buffer":0,"byteOffset":167808,"byteLength":432,"target":34962},{"buffer":0,"byteOffset":168240,"byteLength":432,"target":34962},{"buffer":0,"byteOffset":168672,"byteLength":288,"target":34962},{"buffer":0,"byteOffset":168960,"byteLength":3456,"target":34962},{"buffer":0,"byteOffset":172416,"byteLength":3456,"target":34962},{"buffer":0,"byteOffset":175872,"byteLength":2304,"target":34962},{"buffer":0,"byteOffset":178176,"byteLength":4608,"target":34962},{"buffer":0,"byteOffset":182784,"byteLength":4608,"target":34962},{"buffer":0,"byteOffset":187392,"byteLength":3072,"target":34962},{"buffer":0,"byteOffset":190464,"byteLength":3456,"target":34962},{"buffer":0,"byteOffset":193920,"byteLength":3456,"target":34962},{"buffer":0,"byteOffset":197376,"byteLength":2304,"target":34962},{"buffer":0,"byteOffset":199680,"byteLength":4608,"target":34962},{"buffer":0,"byteOffset":204288,"byteLength":4608,"target":34962},{"buffer":0,"byteOffset":208896,"byteLength":3072,"target":34962},{"buffer":0,"byteOffset":211968,"byteLength":3456,"target":34962},{"buffer":0,"byteOffset":215424,"byteLength":3456,"target":34962},{"buffer":0,"byteOffset":218880,"byteLength":2304,"target":34962},{"buffer":0,"byteOffset":221184,"byteLength":4608,"target":34962},{"buffer":0,"byteOffset":225792,"byteLength":4608,"target":34962},{"buffer":0,"byteOffset":230400,"byteLength":3072,"target":34962}],"accessors":[{"bufferView":0,"componentType":5126,"count":4992,"type":"VEC3","min":[-0.47,-0.47,-3.6],"max":[0.47,0.47,1.8]},{"bufferView":1,"componentType":5126,"count":4992,"type":"VEC3"},{"bufferView":2,"componentType":5126,"count":4992,"type":"VEC2"},{"bufferView":3,"componentType":5126,"count":36,"type":"VEC3","min":[-0.8,-3.0,0.05],"max":[2.0,0.0,0.51]},{"bufferView":4,"componentType":5126,"count":36,"type":"VEC3"},{"bufferView":5,"componentType":5126,"count":36,"type":"VEC2"},{"bufferView":6,"componentType":5126,"count":36,"type":"VEC3","min":[-0.8,0.0,0.05],"max":[2.0,3.0,0.51]},{"bufferView":7,"componentType":5126,"count":36,"type":"VEC3"},{"bufferView":8,"componentType":5126,"count":36,"type":"VEC2"},{"bufferView":9,"componentType":5126,"count":36,"type":"VEC3","min":[-3.0500000000000003,-0.8,-0.09],"max":[-2.15,0.8,-0.010000000000000002]},{"bufferView":10,"componentType":5126,"count":36,"type":"VEC3"},{"bufferView":11,"componentType":5126,"count":36,"type":"VEC2"},{"bufferView":12,"componentType":5126,"count":36,"type":"VEC3","min":[-2.8099999999999996,-0.3,0.0],"max":[-2.79,0.3,1.0]},{"bufferView":13,"componentType":5126,"count":36,"type":"VEC3"},{"bufferView":14,"componentType":5126,"count":36,"type":"VEC2"},{"bufferView":15,"componentType":5126,"count":36,"type":"VEC3","min":[-0.45,-0.25,0.19999999999999998],"max":[0.04999999999999999,0.25,0.5]},{"bufferView":16,"componentType":5126,"count":36,"type":"VEC3"},{"bufferView":17,"componentType":5126,"count":36,"type":"VEC2"},{"bufferView":18,"componentType":5126,"count":36,"type":"VEC3","min":[-0.575,-0.225,0.14500000000000002],"max":[-0.425,0.225,0.295]},{"bufferView":19,"componentType":5126,"count":36,"type":"VEC3"},{"bufferView":20,"componentType":5126,"count":36,"type":"VEC2"},{"bufferView":21,"componentType":5126,"count":36,"type":"VEC3","min":[-0.825,-0.225,0.09],"max":[-0.575,0.225,0.21]},{"bufferView":22,"componentType":5126,"count":36,"type":"VEC3"},{"bufferView":23,"componentType":5126,"count":36,"type":"VEC2"},{"bufferView":24,"componentType":5126,"count":36,"type":"VEC3","min":[-0.905,-0.225,0.15],"max":[-0.655,0.225,0.44999999999999996]},{"bufferView":25,"componentType":5126,"count":36,"type":"VEC3"},{"bufferView":26,"componentType":5126,"count":36,"type":"VEC2"},{"bufferView":27,"componentType":5126,"count":288,"type":"VEC3","min":[0.77,-0.03,-0.85],"max":[0.8300000000000001,0.03,-0.15000000000000002]},{"bufferView":28,"componentType":5126,"count":288,"type":"VEC3"},{"bufferView":29,"componentType":5126,"count":288,"type":"VEC2"},{"bufferView":30,"componentType":5126,"count":384,"type":"VEC3","min":[0.68,-0.04,-1.02],"max":[0.92,0.04,-0.78]},{"bufferView":31,"componentType":5126,"count":384,"type":"VEC3"},{"bufferView":32,"componentType":5126,"count":384,"type":"VEC2"},{"bufferView":33,"componentType":5126,"count":288,"type":"VEC3","min":[-0.64,0.86,-1.0],"max":[-0.5599999999999999,0.9400000000000001,-0.19999999999999996]},{"bufferView":34,"componentType":5126,"count":288,"type":"VEC3"},{"bufferView":35,"componentType":5126,"count":288,"type":"VEC2"},{"bufferView":36,"componentType":5126,"count":384,"type":"VEC3","min":[-0.78,0.85,-1.18],"max":[-0.42,0.9500000000000001,-0.8200000000000001]},{"bufferView":37,"componentType":5126,"count":384,"type":"VEC3"},{"bufferView":38,"componentType":5126,"count":384,"type":"VEC2"},{"bufferView":39,"componentType":5126,"count":288,"type":"VEC3","min":[-0.64,-0.9400000000000001,-1.0],"max":[-0.5599999999999999,-0.86,-0.19999999999999996]},{"bufferView":40,"componentType":5126,"count":288,"type":"VEC3"},{"bufferView":41,"componentType":5126,"count":288,"type":"VEC2"},{"bufferView":42,"componentType":5126,"count":384,"type":"VEC3","min":[-0.78,-0.9500000000000001,-1.18],"max":[-0.42,-0.85,-0.8200000000000001]},{"bufferView":43,"componentType":5126,"count":384,"type":"VEC3"},{"bufferView":44,"componentType":5126,"count":384,"type":"VEC2"}],"materials":[{"name":"Fuselage","pbrMetallicRoughness":{"baseColorFactor":[0.85,0.85,0.9,1.0],"metallicFactor":0.1,"roughnessFactor":0.6},"doubleSided":true},{"name":"WingLeft","pbrMetallicRoughness":{"baseColorFactor":[0.2,0.25,0.3,1.0],"metallicFactor":0.1,"roughnessFactor":0.6},"doubleSided":true},{"name":"WingRight","pbrMetallicRoughness":{"baseColorFactor":[0.2,0.25,0.3,1.0],"metallicFactor":0.1,"roughnessFactor":0.6},"doubleSided":true},{"name":"Tailplane","pbrMetallicRoughness":{"baseColorFactor":[0.3,0.35,0.4,1.0],"metallicFactor":0.1,"roughnessFactor":0.6},"doubleSided":true},{"name":"VerticalStab","pbrMetallicRoughness":{"baseColorFactor":[0.22,0.24,0.28,1.0],"metallicFactor":0.1,"roughnessFactor":0.6},"doubleSided":true},{"name":"Canopy","pbrMetallicRoughness":{"baseColorFactor":[0.1,0.15,0.2,0.8],"metallicFactor":0.1,"roughnessFactor":0.6},"doubleSided":true}],"meshes":[{"name":"SemiRealisticJet","primitives":[{"attributes":{"POSITION":0,"NORMAL":1,"TEXCOORD_0":2},"material":0,"mode":4},{"attributes":{"POSITION":3,"NORMAL":4,"TEXCOORD_0":5},"material":1,"mode":4},{"attributes":{"POSITION":6,"NORMAL":7,"TEXCOORD_0":8},"material":1,"mode":4},{"attributes":{"POSITION":9,"NORMAL":10,"TEXCOORD_0":11},"material":1,"mode":4},{"attributes":{"POSITION":12,"NORMAL":13,"TEXCOORD_0":14},"material":1,"mode":4},{"attributes":{"POSITION":15,"NORMAL":16,"TEXCOORD_0":17},"material":5,"mode":4},{"attributes":{"POSITION":18,"NORMAL":19,"TEXCOORD_0":20},"material":4,"mode":4},{"attributes":{"POSITION":21,"NORMAL":22,"TEXCOORD_0":23},"material":4,"mode":4},{"attributes":{"POSITION":24,"NORMAL":25,"TEXCOORD_0":26},"material":4,"mode":4},{"attributes":{"POSITION":27,"NORMAL":28,"TEXCOORD_0":29},"material":2,"mode":4},{"attributes":{"POSITION":30,"NORMAL":31,"TEXCOORD_0":32},"material":3,"mode":4},{"attributes":{"POSITION":33,"NORMAL":34,"TEXCOORD_0":35},"material":2,"mode":4},{"attributes":{"POSITION":36,"NORMAL":37,"TEXCOORD_0":38},"material":3,"mode":4},{"attributes":{"POSITION":39,"NORMAL":40,"TEXCOORD_0":41},"material":2,"mode":4},{"attributes":{"POSITION":42,"NORMAL":43,"TEXCOORD_0":44},"material":3,"mode":4}]}],"nodes":[{"mesh":0,"name":"JetNode"}],"scenes":[{"nodes":[0]}],"scene":0}